<svg width="672" height="130" viewBox="0 0 672 130" fill="none" xmlns="http://www.w3.org/2000/svg">
<path d="M33.4659 65.252C34.1178 82.983 45.405 96.1076 62.6444 98.7569C71.7496 100.156 80.0896 97.8426 87.6966 92.2347C87.2796 91.7833 86.9632 91.3828 86.5914 91.0479C81.822 86.7337 77.0749 82.3909 72.2348 78.1589C71.5847 77.5884 70.398 77.2026 69.5646 77.3452C63.511 78.3798 57.8247 75.7872 55.0946 70.5741C52.3894 65.4087 53.3718 59.0902 57.5172 54.9951C61.6353 50.9267 68.0664 50.0359 73.1255 52.8329C78.2604 55.6719 80.9141 61.4943 79.5337 67.4276C79.2039 68.8442 79.7572 69.4306 80.6129 70.201C88.5065 77.3235 96.3797 84.4633 104.473 91.796C103.045 93.5042 101.851 95.1787 100.414 96.6106C87.0173 109.951 71.0805 114.482 53.105 108.543C35.0748 102.586 24.8235 89.4937 22.0349 70.674C21.7694 68.8811 21.8101 67.0417 21.7083 65.224C25.6277 65.2323 29.5465 65.2418 33.4659 65.252Z" fill="white"/>
<path d="M33.466 65.2521C29.5472 65.2419 25.6278 65.233 21.709 65.2221C20.761 45.5391 35.7696 25.7408 55.8047 20.9484C74.4201 16.4948 90.0958 21.8646 102.652 36.311C103.216 36.9598 103.697 37.6798 104.351 38.5457C101.511 41.5273 98.7458 44.4306 96.1507 47.155C93.3391 44.2829 90.9624 41.2274 87.9948 38.9367C77.4882 30.824 65.821 29.2463 53.7177 34.6117C41.7945 39.8968 35.2678 49.4534 33.927 62.4793C33.8315 63.4095 33.622 64.3282 33.466 65.2521Z" fill="white"/>
<path d="M199.6 101.2C194.467 101.2 189.933 100.1 186 97.9C182.067 95.6333 178.967 92.5333 176.7 88.6C174.5 84.6667 173.4 80.1333 173.4 75C173.4 69.8667 174.5 65.3333 176.7 61.4C178.967 57.4667 182.033 54.4 185.9 52.2C189.833 49.9333 194.333 48.8 199.4 48.8C204.333 48.8 208.8 50 212.8 52.4C216.8 54.7333 219.767 58.1 221.7 62.5L211.3 66.5C210.233 64.3 208.6 62.5333 206.4 61.2C204.2 59.8667 201.7 59.2 198.9 59.2C196.167 59.2 193.733 59.9 191.6 61.3C189.467 62.6333 187.8 64.5 186.6 66.9C185.4 69.2333 184.8 71.9333 184.8 75C184.8 78.0667 185.4 80.8 186.6 83.2C187.867 85.5333 189.567 87.4 191.7 88.8C193.9 90.1333 196.367 90.8 199.1 90.8C201.9 90.8 204.4 90.1 206.6 88.7C208.8 87.2333 210.433 85.2667 211.5 82.8L221.9 86.8C219.967 91.3333 217 94.8667 213 97.4C209.067 99.9333 204.6 101.2 199.6 101.2ZM261.895 100L261.395 90.6V74.3C261.395 70.9 261.028 68.0667 260.295 65.8C259.561 63.5333 258.395 61.8 256.795 60.6C255.261 59.4 253.228 58.8 250.695 58.8C248.361 58.8 246.295 59.3 244.495 60.3C242.695 61.3 241.195 62.8333 239.995 64.9L229.795 61.3C230.928 59.1 232.395 57.0333 234.195 55.1C235.995 53.1667 238.261 51.6333 240.995 50.5C243.795 49.3667 247.095 48.8 250.895 48.8C255.761 48.8 259.795 49.7 262.995 51.5C266.261 53.3 268.695 55.9667 270.295 59.5C271.895 63.0333 272.695 67.4 272.695 72.6L272.395 100H261.895ZM247.695 101.2C241.695 101.2 237.028 99.8667 233.695 97.2C230.428 94.5333 228.795 90.7667 228.795 85.9C228.795 80.7 230.528 76.7333 233.995 74C237.528 71.2667 242.428 69.9 248.695 69.9H262.095V78.5H252.295C247.828 78.5 244.695 79.1333 242.895 80.4C241.095 81.6 240.195 83.3333 240.195 85.6C240.195 87.5333 240.961 89.0667 242.495 90.2C244.095 91.2667 246.295 91.8 249.095 91.8C251.561 91.8 253.695 91.2333 255.495 90.1C257.361 88.9 258.795 87.3667 259.795 85.5C260.861 83.5667 261.395 81.5 261.395 79.3H265.495C265.495 86.1 264.028 91.4667 261.095 95.4C258.228 99.2667 253.761 101.2 247.695 101.2ZM292.436 73.4C292.436 68 293.469 63.5667 295.536 60.1C297.603 56.6333 300.269 54.0667 303.536 52.4C306.869 50.6667 310.336 49.8 313.936 49.8V60.5C310.869 60.5 307.969 60.9333 305.236 61.8C302.569 62.6 300.403 63.9333 298.736 65.8C297.069 67.6667 296.236 70.1333 296.236 73.2L292.436 73.4ZM285.036 100V50H296.236V100H285.036ZM344.664 101.2C339.797 101.2 335.464 100.1 331.664 97.9C327.931 95.6333 324.964 92.5333 322.764 88.6C320.631 84.6667 319.564 80.1333 319.564 75C319.564 69.8667 320.664 65.3333 322.864 61.4C325.064 57.4667 328.064 54.4 331.864 52.2C335.731 49.9333 340.131 48.8 345.064 48.8C349.531 48.8 353.531 49.9667 357.064 52.3C360.664 54.5667 363.531 57.8667 365.664 62.2C367.797 66.5333 368.864 71.7 368.864 77.7H357.564C357.564 73.3667 357.031 69.8 355.964 67C354.964 64.2 353.497 62.1333 351.564 60.8C349.697 59.4 347.397 58.7 344.664 58.7C341.797 58.7 339.331 59.3333 337.264 60.6C335.197 61.8667 333.631 63.7333 332.564 66.2C331.497 68.6 330.964 71.6333 330.964 75.3C330.964 78.5667 331.597 81.3667 332.864 83.7C334.197 86.0333 335.964 87.8333 338.164 89.1C340.431 90.3 342.931 90.9 345.664 90.9C348.664 90.9 351.131 90.2333 353.064 88.9C354.997 87.5 356.497 85.7333 357.564 83.6L367.864 88C366.464 90.6667 364.664 93 362.464 95C360.331 97 357.764 98.5333 354.764 99.6C351.831 100.667 348.464 101.2 344.664 101.2ZM326.964 77.7V68.8H362.964V77.7H326.964ZM401.842 101.2C396.709 101.2 392.176 100.1 388.242 97.9C384.309 95.6333 381.209 92.5333 378.942 88.6C376.742 84.6667 375.642 80.1333 375.642 75C375.642 69.8667 376.742 65.3333 378.942 61.4C381.209 57.4667 384.276 54.4 388.142 52.2C392.076 49.9333 396.576 48.8 401.642 48.8C406.576 48.8 411.042 50 415.042 52.4C419.042 54.7333 422.009 58.1 423.942 62.5L413.542 66.5C412.476 64.3 410.842 62.5333 408.642 61.2C406.442 59.8667 403.942 59.2 401.142 59.2C398.409 59.2 395.976 59.9 393.842 61.3C391.709 62.6333 390.042 64.5 388.842 66.9C387.642 69.2333 387.042 71.9333 387.042 75C387.042 78.0667 387.642 80.8 388.842 83.2C390.109 85.5333 391.809 87.4 393.942 88.8C396.142 90.1333 398.609 90.8 401.342 90.8C404.142 90.8 406.642 90.1 408.842 88.7C411.042 87.2333 412.676 85.2667 413.742 82.8L424.142 86.8C422.209 91.3333 419.242 94.8667 415.242 97.4C411.309 99.9333 406.842 101.2 401.842 101.2ZM456.137 101.2C451.27 101.2 446.937 100.1 443.137 97.9C439.403 95.6333 436.437 92.5333 434.237 88.6C432.103 84.6667 431.037 80.1333 431.037 75C431.037 69.8667 432.137 65.3333 434.337 61.4C436.537 57.4667 439.537 54.4 443.337 52.2C447.203 49.9333 451.603 48.8 456.537 48.8C461.003 48.8 465.003 49.9667 468.537 52.3C472.137 54.5667 475.003 57.8667 477.137 62.2C479.27 66.5333 480.337 71.7 480.337 77.7H469.037C469.037 73.3667 468.503 69.8 467.437 67C466.437 64.2 464.97 62.1333 463.037 60.8C461.17 59.4 458.87 58.7 456.137 58.7C453.27 58.7 450.803 59.3333 448.737 60.6C446.67 61.8667 445.103 63.7333 444.037 66.2C442.97 68.6 442.437 71.6333 442.437 75.3C442.437 78.5667 443.07 81.3667 444.337 83.7C445.67 86.0333 447.437 87.8333 449.637 89.1C451.903 90.3 454.403 90.9 457.137 90.9C460.137 90.9 462.603 90.2333 464.537 88.9C466.47 87.5 467.97 85.7333 469.037 83.6L479.337 88C477.937 90.6667 476.137 93 473.937 95C471.803 97 469.237 98.5333 466.237 99.6C463.303 100.667 459.937 101.2 456.137 101.2ZM438.437 77.7V68.8H474.437V77.7H438.437ZM489.915 100V50H500.415L501.115 59.2V100H489.915ZM523.815 100V74.4L535.015 71.4V100H523.815ZM523.815 74.4C523.815 70.4 523.348 67.3333 522.415 65.2C521.548 63 520.282 61.4667 518.615 60.6C517.015 59.7333 515.115 59.3 512.915 59.3C509.182 59.2333 506.282 60.4667 504.215 63C502.148 65.5333 501.115 69.1667 501.115 73.9H496.915C496.915 68.6333 497.682 64.1333 499.215 60.4C500.748 56.6 502.948 53.7333 505.815 51.8C508.682 49.8 512.082 48.8 516.015 48.8C522.082 48.8 526.748 50.6667 530.015 54.4C533.348 58.0667 535.015 63.7333 535.015 71.4L523.815 74.4ZM567.26 101.2C561.993 101.2 557.96 99.9 555.16 97.3C552.427 94.6333 551.06 90.8333 551.06 85.9V34.4H562.16V83.8C562.16 86.1333 562.693 87.9 563.76 89.1C564.893 90.3 566.527 90.9 568.66 90.9C569.327 90.9 570.06 90.7667 570.86 90.5C571.66 90.2333 572.56 89.7333 573.56 89L577.66 97.5C575.927 98.7 574.193 99.6 572.46 100.2C570.727 100.867 568.993 101.2 567.26 101.2ZM542.76 59.6V50H575.66V59.6H542.76ZM595.018 73.4C595.018 68 596.051 63.5667 598.118 60.1C600.185 56.6333 602.851 54.0667 606.118 52.4C609.451 50.6667 612.918 49.8 616.518 49.8V60.5C613.451 60.5 610.551 60.9333 607.818 61.8C605.151 62.6 602.985 63.9333 601.318 65.8C599.651 67.6667 598.818 70.1333 598.818 73.2L595.018 73.4ZM587.618 100V50H598.818V100H587.618ZM655.246 100L654.746 90.6V74.3C654.746 70.9 654.379 68.0667 653.646 65.8C652.913 63.5333 651.746 61.8 650.146 60.6C648.613 59.4 646.579 58.8 644.046 58.8C641.713 58.8 639.646 59.3 637.846 60.3C636.046 61.3 634.546 62.8333 633.346 64.9L623.146 61.3C624.279 59.1 625.746 57.0333 627.546 55.1C629.346 53.1667 631.613 51.6333 634.346 50.5C637.146 49.3667 640.446 48.8 644.246 48.8C649.113 48.8 653.146 49.7 656.346 51.5C659.613 53.3 662.046 55.9667 663.646 59.5C665.246 63.0333 666.046 67.4 666.046 72.6L665.746 100H655.246ZM641.046 101.2C635.046 101.2 630.379 99.8667 627.046 97.2C623.779 94.5333 622.146 90.7667 622.146 85.9C622.146 80.7 623.879 76.7333 627.346 74C630.879 71.2667 635.779 69.9 642.046 69.9H655.446V78.5H645.646C641.179 78.5 638.046 79.1333 636.246 80.4C634.446 81.6 633.546 83.3333 633.546 85.6C633.546 87.5333 634.313 89.0667 635.846 90.2C637.446 91.2667 639.646 91.8 642.446 91.8C644.913 91.8 647.046 91.2333 648.846 90.1C650.713 88.9 652.146 87.3667 653.146 85.5C654.213 83.5667 654.746 81.5 654.746 79.3H658.846C658.846 86.1 657.379 91.4667 654.446 95.4C651.579 99.2667 647.113 101.2 641.046 101.2Z" fill="white"/>
</svg>
